<svg xmlns="http://www.w3.org/2000/svg"  viewBox="0 0 100 100" width="50px" height="50px"><path d="M 46.886719 9.9726562 C 46.662842 9.9726562 46.413499 9.9739265 46.154297 9.9921875 C 46.152297 9.9922426 46.150438 9.992132 46.148438 9.9921875 C 34.867559 10.309952 25.248188 18.099389 22.59375 28.818359 L 20.097656 30.351562 A 1.0001 1.0001 0 0 0 20.091797 30.353516 C 18.511676 31.336702 17.422008 32.926224 17.119141 34.724609 C 17.024913 35.165638 16.988495 35.611634 17 36.048828 A 1.0001 1.0001 0 0 0 17 36.054688 L 17.300781 45.285156 A 1.0001 1.0001 0 0 0 17.300781 45.291016 C 17.364411 46.983599 18.352561 48.518558 19.886719 49.279297 L 20.476562 49.572266 C 20.098156 56.375684 20.00182 62.55041 20.224609 67.021484 A 1.0001 1.0001 0 0 0 20.224609 67.025391 C 20.249209 67.477189 20.34236 67.912345 20.478516 68.318359 C 20.815279 69.320848 21.508316 70.162736 22.40625 70.734375 A 1.0001 1.0001 0 0 0 22.419922 70.742188 C 23.437513 71.365533 24.792098 72.075895 26.279297 72.806641 C 27.319488 76.310324 30.559911 80.323701 34.806641 83.695312 C 39.243395 87.217791 44.737459 89.974609 49.992188 89.974609 C 55.246882 89.974609 60.739015 87.217671 65.175781 83.695312 C 69.422523 80.323815 72.664904 76.310744 73.705078 72.806641 C 75.192015 72.076613 76.545665 71.36507 77.5625 70.742188 A 1.0001 1.0001 0 0 0 77.568359 70.740234 C 78.876119 69.929044 79.687435 68.53622 79.759766 67.023438 L 79.759766 67.019531 C 79.98306 62.548464 79.887464 56.377009 79.509766 49.578125 L 80.113281 49.279297 C 81.647439 48.518558 82.635588 46.983599 82.699219 45.291016 A 1.0001 1.0001 0 0 0 82.699219 45.285156 L 83 36.054688 A 1.0001 1.0001 0 0 0 83 36.048828 C 83.0115 35.611634 82.97513 35.165684 82.880859 34.724609 C 82.577992 32.926224 81.488324 31.336702 79.908203 30.353516 A 1.0001 1.0001 0 0 0 79.902344 30.349609 L 77.392578 28.814453 C 74.735762 18.098167 65.114443 10.310865 53.833984 9.9921875 C 53.831984 9.9921318 53.830125 9.9922427 53.828125 9.9921875 C 53.569255 9.9739455 53.322425 9.9726562 53.097656 9.9726562 L 46.886719 9.9726562 z M 46.886719 11.972656 L 46.980469 11.972656 L 46.980469 31.369141 C 46.980469 32.953488 48.340175 34.222656 49.992188 34.222656 C 51.64396 34.222656 53.021484 32.958115 53.021484 31.369141 L 53.021484 11.972656 L 53.097656 11.972656 C 53.338656 11.972656 53.556568 11.974951 53.720703 11.988281 A 1.0001 1.0001 0 0 0 53.773438 11.990234 C 54.063675 11.998366 54.347052 12.033996 54.634766 12.052734 L 54.720703 13.181641 A 0.50047477 0.50047477 0 1 0 55.71875 13.105469 L 55.642578 12.126953 C 65.32265 13.179005 73.327635 20.191814 75.519531 29.605469 A 1.0001 1.0001 0 0 0 75.519531 29.607422 A 1.0001 1.0001 0 0 0 75.570312 29.800781 A 1.0001 1.0001 0 0 0 75.572266 29.804688 C 75.722398 30.477393 75.842354 31.161958 75.931641 31.857422 C 70.518928 34.686658 63.3028 36.424348 57.498047 37.296875 L 56.427734 22.855469 A 0.50005 0.50005 0 0 0 55.935547 22.386719 A 0.50005 0.50005 0 0 0 55.431641 22.929688 L 56.503906 37.439453 C 53.871121 37.800293 51.557622 37.994141 49.992188 37.994141 C 48.427361 37.994141 46.115511 37.800002 43.484375 37.439453 L 45.347656 12.052734 C 45.635987 12.033954 45.920073 11.99836 46.210938 11.990234 A 1.0001 1.0001 0 0 0 46.263672 11.988281 C 46.427566 11.974991 46.646719 11.972656 46.886719 11.972656 z M 47.980469 11.972656 L 52.021484 11.972656 L 52.021484 31.369141 C 52.021484 32.380166 51.142414 33.222656 49.992188 33.222656 C 48.842199 33.222656 47.980469 32.382793 47.980469 31.369141 L 47.980469 11.972656 z M 44.341797 12.126953 L 42.492188 37.296875 C 36.687458 36.424587 29.469323 34.687415 24.054688 31.857422 C 24.143567 31.164616 24.262845 30.482723 24.412109 29.8125 A 1.0001 1.0001 0 0 0 24.470703 29.59375 C 26.665955 20.185517 34.66673 13.177805 44.341797 12.126953 z M 55.433594 15.521484 A 0.50005 0.50005 0 0 0 54.929688 16.064453 L 55.275391 20.759766 A 0.50040144 0.50040144 0 0 0 56.273438 20.685547 L 55.927734 15.992188 A 0.50005 0.50005 0 0 0 55.433594 15.521484 z M 77.898438 31.46875 L 78.857422 32.056641 C 79.969011 32.750636 80.713318 33.853903 80.914062 35.066406 A 1.0001 1.0001 0 0 0 80.923828 35.119141 C 80.982858 35.384762 81.00799 35.684969 81 35.994141 L 80.701172 45.214844 C 80.666995 46.123926 80.165108 46.928776 79.371094 47.388672 C 79.303127 46.318355 79.249906 45.276196 79.167969 44.183594 C 78.871757 40.162726 78.463397 36.033945 77.964844 31.958984 C 77.960455 31.784675 77.949219 31.743159 77.949219 31.890625 A 1.0001 1.0001 0 0 0 77.941406 31.769531 C 77.929142 31.66856 77.911907 31.569309 77.898438 31.46875 z M 22.087891 31.474609 C 22.074709 31.573265 22.056943 31.670479 22.044922 31.769531 A 1.0001 1.0001 0 0 0 22.037109 31.890625 C 22.037109 31.743159 22.025873 31.784675 22.021484 31.958984 C 21.52293 36.033945 21.114571 40.162726 20.818359 44.183594 C 20.73663 45.273549 20.683095 46.313102 20.615234 47.380859 C 19.829306 46.91951 19.332807 46.118674 19.298828 45.214844 L 19 35.996094 L 19 35.994141 L 19 35.990234 C 18.9923 35.682515 19.017412 35.383585 19.076172 35.119141 A 1.0001 1.0001 0 0 0 19.085938 35.066406 C 19.287049 33.851684 20.033463 32.746496 21.148438 32.052734 L 21.142578 32.054688 L 22.087891 31.474609 z M 23.933594 32.849609 C 29.610952 35.753822 36.910939 37.496953 42.742188 38.347656 A 0.50040144 0.50040144 0 0 0 43.025391 38.386719 C 45.820972 38.783737 48.292284 38.994141 49.992188 38.994141 C 51.692689 38.994141 54.16571 38.784023 56.962891 38.386719 A 0.50040095 0.50040095 0 0 0 57.251953 38.345703 C 63.081941 37.494573 70.377105 35.751834 76.050781 32.849609 C 76.494903 36.557717 76.865423 40.299289 77.140625 43.957031 C 75.332659 44.402093 73.586402 45.016605 71.962891 45.898438 A 0.50005 0.50005 0 1 0 72.439453 46.777344 C 73.664755 46.111805 74.952127 45.582916 76.287109 45.171875 C 74.238299 47.125157 72.087816 50.311521 71.945312 54.617188 C 68.94344 54.850192 65.402949 57.446009 62.458984 61.410156 C 61.055256 63.300323 59.814324 65.509607 58.861328 67.912109 C 59.818012 62.998928 61.456002 58.763395 63.630859 55.292969 A 0.50018678 0.50018678 0 1 0 62.783203 54.761719 C 59.245145 60.407408 57.142683 67.954706 56.935547 77.003906 C 56.28579 77.162147 55.644766 77.302778 55.015625 77.425781 C 54.870178 77.454126 54.718168 77.491229 54.574219 77.517578 C 53.979194 77.626336 53.404916 77.709114 52.84375 77.777344 L 54.632812 55.443359 C 54.912602 52.020666 57.199359 49.100429 60.455078 47.957031 L 70.548828 44.464844 C 72.402355 43.827388 73.833624 42.334239 74.378906 40.476562 A 0.50005 0.50005 0 0 0 74.378906 40.472656 L 75.433594 36.796875 A 0.50005 0.50005 0 0 0 74.746094 36.205078 C 62.817513 41.65026 53.037865 41.869141 49.992188 41.869141 C 47.144723 41.869141 37.290889 41.513943 25.234375 36.201172 A 0.50005 0.50005 0 0 0 25.041016 36.158203 A 0.50005 0.50005 0 0 0 24.552734 36.796875 L 25.605469 40.472656 A 0.50005 0.50005 0 0 0 25.607422 40.476562 C 26.158297 42.354349 27.616802 43.862746 29.498047 44.484375 C 30.740875 44.919061 33.850701 45.988295 35.037109 46.402344 A 0.50005 0.50005 0 0 0 35.039062 46.402344 L 39.53125 47.957031 C 42.740982 49.065041 45.08645 52.027118 45.353516 55.441406 L 47.142578 77.777344 C 45.856861 77.620434 44.469581 77.346988 43.046875 77 C 42.629719 58.896159 34.495151 46.857505 22.845703 43.935547 C 23.120726 40.284561 23.490335 36.550517 23.933594 32.849609 z M 25.785156 37.464844 C 37.552841 42.439355 47.142115 42.869141 49.992188 42.869141 C 53.000109 42.869141 62.549703 42.563321 74.199219 37.474609 L 73.417969 40.197266 C 72.964301 41.737628 71.769701 42.987479 70.222656 43.519531 L 60.126953 47.011719 A 0.50005 0.50005 0 0 0 60.125 47.013672 C 56.503607 48.284687 53.946928 51.542607 53.634766 55.361328 A 0.50005 0.50005 0 0 0 53.634766 55.363281 L 51.830078 77.892578 C 51.575814 77.921581 51.317418 77.953421 51.070312 77.96875 C 50.97909 77.974398 50.892982 77.972527 50.802734 77.976562 C 50.531586 77.988156 50.260494 77.99993 49.998047 78 C 49.998047 78 49.996094 78 49.996094 78 C 49.404976 77.999944 48.787732 77.963887 48.152344 77.890625 L 46.349609 55.363281 L 46.349609 55.361328 C 46.049992 51.541033 43.444179 48.249944 39.859375 47.011719 L 39.857422 47.011719 L 35.367188 45.457031 L 35.365234 45.457031 C 34.168433 45.039366 31.050529 43.967436 29.820312 43.537109 A 0.50005 0.50005 0 0 0 29.8125 43.535156 C 28.245176 43.017258 27.026456 41.753522 26.568359 40.197266 L 26.568359 40.195312 C 26.568359 40.195312 26.566406 40.193359 26.566406 40.193359 L 25.785156 37.464844 z M 23.6875 45.160156 C 32.256554 47.791456 38.747465 55.752919 41.111328 67.853516 C 40.159783 65.474122 38.926987 63.284765 37.533203 61.410156 C 34.585863 57.446047 31.043167 54.850176 28.041016 54.617188 C 27.898238 50.302921 25.739973 47.112322 23.6875 45.160156 z M 22.730469 45.630859 C 24.738011 47.420043 27.012203 50.522323 27.09375 54.796875 C 24.903379 56.522656 23.188867 59.372092 22.109375 62.544922 C 22.074936 57.790311 22.291305 51.881664 22.730469 45.630859 z M 77.253906 45.632812 C 77.692779 51.878473 77.909223 57.785288 77.875 62.539062 C 76.795172 59.369607 75.080637 56.523723 72.892578 54.798828 C 72.973433 50.524703 75.246545 47.422565 77.253906 45.632812 z M 69.505859 47.574219 A 0.50005 0.50005 0 0 0 69.193359 47.677734 C 67.515076 48.934914 65.975884 50.44462 64.595703 52.189453 A 0.50005 0.50005 0 1 0 65.378906 52.810547 C 66.708726 51.12938 68.187252 49.681336 69.792969 48.478516 A 0.50005 0.50005 0 0 0 69.505859 47.574219 z M 27.767578 55.539062 C 30.226154 55.643371 33.820284 58.093678 36.730469 62.007812 C 39.619551 65.893566 41.861631 71.154169 41.988281 76.728516 C 36.981859 75.397759 31.641451 73.236005 27.619141 71.263672 A 1.0001 1.0001 0 0 0 27.496094 71.191406 C 25.887835 70.412836 24.502507 69.672085 23.480469 69.046875 L 23.478516 69.044922 C 22.935861 68.698544 22.555953 68.220309 22.375 67.681641 C 22.289578 67.426915 22.236385 67.167022 22.222656 66.921875 L 22.222656 66.917969 C 22.210707 66.677956 22.205453 66.404722 22.195312 66.154297 C 22.995645 61.86009 25.090218 57.619929 27.767578 55.539062 z M 72.21875 55.539062 C 74.89456 57.618724 76.989647 61.854819 77.791016 66.146484 C 77.780688 66.401448 77.773926 66.679637 77.761719 66.923828 A 1.0001 1.0001 0 0 0 77.761719 66.925781 C 77.720899 67.794573 77.275253 68.566801 76.515625 69.039062 C 76.515625 69.039062 76.513672 69.041016 76.513672 69.041016 C 75.490533 69.667434 74.099989 70.412151 72.488281 71.191406 A 1.0001 1.0001 0 0 0 72.339844 71.28125 C 68.32207 73.249405 63.002422 75.402578 58.011719 76.728516 C 58.138131 71.153996 60.376002 65.893527 63.261719 62.007812 C 66.168514 58.093717 69.760274 55.643373 72.21875 55.539062 z M 28.310547 72.691406 C 32.387224 74.612582 37.470337 76.61803 42.279297 77.84375 A 0.50005 0.50005 0 0 0 42.460938 77.929688 C 44.269709 78.370531 46.046142 78.703234 47.669922 78.851562 C 47.671122 78.85167 47.672628 78.851456 47.673828 78.851562 C 48.080451 78.906628 48.476684 78.943454 48.863281 78.966797 C 48.863281 78.966797 48.865234 78.966797 48.865234 78.966797 C 49.251384 78.990798 49.629433 78.9999 49.994141 79 C 49.995404 79 49.996784 79 49.998047 79 C 50.726648 78.999807 51.500599 78.962492 52.3125 78.851562 C 52.3137 78.851455 52.315206 78.851671 52.316406 78.851562 C 53.939763 78.702256 55.715539 78.370548 57.525391 77.929688 A 0.50005 0.50005 0 0 0 57.699219 77.849609 C 62.50762 76.626794 67.59214 74.621445 71.671875 72.699219 C 70.651225 75.406933 67.725779 79.118282 63.933594 82.128906 C 59.73611 85.461298 54.529493 87.974609 49.992188 87.974609 C 45.454915 87.974609 40.248277 85.461429 36.050781 82.128906 C 32.254915 79.11525 29.328441 75.399449 28.310547 72.691406 z"/></svg>